<?xml version="1.0" encoding="UTF-8" standalone="no"?><!DOCTYPE svg PUBLIC "-//W3C//DTD SVG 1.1//EN" "http://www.w3.org/Graphics/SVG/1.1/DTD/svg11.dtd"><svg width="100%" height="100%" viewBox="0 0 18 18" version="1.1" xmlns="http://www.w3.org/2000/svg" xmlns:xlink="http://www.w3.org/1999/xlink" xml:space="preserve" style="fill-rule:evenodd;clip-rule:evenodd;stroke-linejoin:round;stroke-miterlimit:1.41421;"><path id="artboard-1" d="M16,10.283c-0.17,0.374 -0.252,0.542 -0.471,0.873c-0.305,0.462 -0.735,1.038 -1.269,1.044c-0.474,0.003 -0.595,-0.308 -1.238,-0.304c-0.643,0.003 -0.777,0.309 -1.251,0.304c-0.533,-0.004 -0.942,-0.524 -1.247,-0.987c-0.854,-1.293 -0.943,-2.811 -0.416,-3.618c0.374,-0.573 0.964,-0.909 1.519,-0.909c0.566,0 0.921,0.309 1.389,0.309c0.452,0 0.729,-0.309 1.382,-0.309c0.494,0 1.017,0.267 1.391,0.729c-1.222,0.667 -1.024,2.403 0.211,2.868ZM12.787,6.733c-0.078,-0.42 0.121,-0.851 0.362,-1.141c0.264,-0.32 0.718,-0.565 1.106,-0.592c0.065,0.437 -0.115,0.866 -0.352,1.169c-0.255,0.324 -0.693,0.576 -1.116,0.564ZM6.843,10.348l-0.786,-0.888l1.095,-1.144l1.076,0.621c0.125,0.065 0.195,0.182 0.208,0.306c-0.013,0.124 -0.083,0.242 -0.208,0.306l-1.385,0.799ZM2.863,5.843l3.709,2.139l-0.947,0.988l-2.762,-3.127ZM2.106,12.643c-0.064,-0.078 -0.106,-0.176 -0.106,-0.291l0,-6.217c0,-0.083 0.022,-0.158 0.058,-0.223l3.116,3.529l-3.068,3.202ZM6.268,10.68l-3.084,1.778l2.422,-2.527l0.662,0.749Z" style="fill:#000;"/></svg>