<?xml version="1.0" encoding="UTF-8" standalone="no"?><!DOCTYPE svg PUBLIC "-//W3C//DTD SVG 1.1//EN" "http://www.w3.org/Graphics/SVG/1.1/DTD/svg11.dtd"><svg width="100%" height="100%" viewBox="0 0 18 18" version="1.1" xmlns="http://www.w3.org/2000/svg" xmlns:xlink="http://www.w3.org/1999/xlink" xml:space="preserve" style="fill-rule:evenodd;clip-rule:evenodd;stroke-linejoin:round;stroke-miterlimit:1.41421;"><path d="M2,5l0,-2c0,0 3.384,0 6.002,0c0.795,0 1.558,0.316 2.12,0.878c0.319,0.32 0.559,0.704 0.707,1.122l2.67,0c1.382,0.001 2.501,1.121 2.501,2.501l0,4.998c0,1.38 -1.119,2.5 -2.501,2.501l-11.499,0l0,-10ZM13.412,7l-9.412,0c0,0.124 0.017,6 0,6c0.673,-0.018 2,-5 2,-5l8,-0.412c0,-0.323 -0.261,-0.585 -0.588,-0.588Z" style="fill:#000;"/></svg>