<?xml version="1.0" encoding="UTF-8" standalone="no"?><!DOCTYPE svg PUBLIC "-//W3C//DTD SVG 1.1//EN" "http://www.w3.org/Graphics/SVG/1.1/DTD/svg11.dtd"><svg width="100%" height="100%" viewBox="0 0 18 18" version="1.1" xmlns="http://www.w3.org/2000/svg" xmlns:xlink="http://www.w3.org/1999/xlink" xml:space="preserve" xmlns:serif="http://www.serif.com/" style="fill-rule:evenodd;clip-rule:evenodd;stroke-linejoin:round;stroke-miterlimit:1.41421;"><path id="artboard-1" d="M11.947,15l0,-2l3,0l0,2l-3,0Zm0,-5l3,0l0,2l-3,0l0,-2Zm0,-7l3,0l0,2l-3,0l0,-2Zm-8,10l3,0l0,2l-3,0l0,-2Zm0,-3l3,0l0,2l-3,0l0,-2Zm0,-7l3,0l0,2l-3,0l0,-2Zm-1,3l11,0l0,3l-11,0l0,-3Zm8,-1l-3,0l0,-2l3,0l0,2Zm0,7l-3,0l0,-2l3,0l0,2Zm0,3l-3,0l0,-2l3,0l0,2Z"/></svg>