<?xml version="1.0" encoding="UTF-8" standalone="no"?><!DOCTYPE svg PUBLIC "-//W3C//DTD SVG 1.1//EN" "http://www.w3.org/Graphics/SVG/1.1/DTD/svg11.dtd"><svg width="100%" height="100%" viewBox="0 0 18 18" version="1.1" xmlns="http://www.w3.org/2000/svg" xmlns:xlink="http://www.w3.org/1999/xlink" xml:space="preserve" xmlns:serif="http://www.serif.com/" style="fill-rule:evenodd;clip-rule:evenodd;stroke-linejoin:round;stroke-miterlimit:2;"><path d="M16,6.015c-0,-0.534 -0.212,-1.047 -0.59,-1.425c-0.378,-0.378 -0.891,-0.59 -1.425,-0.59c-2.659,-0 -7.311,-0 -9.97,-0c-0.534,-0 -1.047,0.212 -1.425,0.59c-0.378,0.378 -0.59,0.891 -0.59,1.425c0,1.981 0,4.989 0,6.97c0,0.534 0.212,1.047 0.59,1.425c0.378,0.378 0.891,0.59 1.425,0.59c2.659,-0 7.311,-0 9.97,-0c0.534,0 1.047,-0.212 1.425,-0.59c0.378,-0.378 0.59,-0.891 0.59,-1.425c0,-1.981 0,-4.989 0,-6.97Zm-1,-0.015c0,-0.266 -0.105,-0.52 -0.293,-0.707c-0.187,-0.188 -0.441,-0.293 -0.707,-0.293c-2.259,0 -7.741,0 -10,0c-0.266,-0 -0.52,0.105 -0.707,0.293c-0.188,0.187 -0.293,0.441 -0.293,0.707c0,1.537 -0,4.463 -0,6c-0,0.266 0.105,0.52 0.293,0.707c0.187,0.188 0.441,0.293 0.707,0.293c2.259,0 7.741,0 10,-0c0.266,0 0.52,-0.105 0.707,-0.293c0.188,-0.187 0.293,-0.441 0.293,-0.707c0,-1.537 0,-4.463 -0,-6Zm-8,0.5l4.5,2.5l-4.5,2.5l0,-5Z"/></svg>