<?xml version="1.0" encoding="UTF-8" standalone="no"?><!DOCTYPE svg PUBLIC "-//W3C//DTD SVG 1.1//EN" "http://www.w3.org/Graphics/SVG/1.1/DTD/svg11.dtd"><svg width="100%" height="100%" viewBox="0 0 18 18" version="1.1" xmlns="http://www.w3.org/2000/svg" xmlns:xlink="http://www.w3.org/1999/xlink" xml:space="preserve" xmlns:serif="http://www.serif.com/" style="fill-rule:evenodd;clip-rule:evenodd;stroke-linejoin:round;stroke-miterlimit:1.41421;"><path d="M13.419,4c1.425,0 2.581,1.157 2.581,2.581l0,4.838c0,1.425 -1.156,2.581 -2.581,2.581l-8.838,0c-1.425,0 -2.581,-1.156 -2.581,-2.581l0,-4.838c0,-1.424 1.156,-2.581 2.581,-2.581l8.838,0Zm-0.419,7l-8,0l0,1l8,0l0,-1Zm-6,-2l-2,0l0,1l2,0l0,-1Zm6,0l-4,0l0,1l4,0l0,-1Z"/></svg>