<?xml version="1.0" encoding="UTF-8" standalone="no"?><!DOCTYPE svg PUBLIC "-//W3C//DTD SVG 1.1//EN" "http://www.w3.org/Graphics/SVG/1.1/DTD/svg11.dtd"><svg width="100%" height="100%" viewBox="0 0 18 18" version="1.1" xmlns="http://www.w3.org/2000/svg" xmlns:xlink="http://www.w3.org/1999/xlink" xml:space="preserve" xmlns:serif="http://www.serif.com/" style="fill-rule:evenodd;clip-rule:evenodd;stroke-linejoin:round;stroke-miterlimit:2;"><path d="M13,13l-5,0c2.502,0.023 5,3.333 5,3.333l0,-3.333Zm3,-6.75c-0,-1.242 -1.008,-2.25 -2.25,-2.25l-9.5,0c-1.242,0 -2.25,1.008 -2.25,2.25l0,4.5c0,1.242 1.008,2.25 2.25,2.25l9.5,0c1.242,0 2.25,-1.008 2.25,-2.25l-0,-4.5Zm-5,-1.25c0,-0 2.006,0.749 2.673,1.415c0.667,0.667 1.327,2.585 1.327,2.585c0,-0 0.285,-2.206 -0.737,-3.228c-1,-1 -3.263,-0.772 -3.263,-0.772Z"/></svg>