<?xml version="1.0" encoding="UTF-8" standalone="no"?><!DOCTYPE svg PUBLIC "-//W3C//DTD SVG 1.1//EN" "http://www.w3.org/Graphics/SVG/1.1/DTD/svg11.dtd"><svg width="100%" height="100%" viewBox="0 0 18 18" version="1.1" xmlns="http://www.w3.org/2000/svg" xmlns:xlink="http://www.w3.org/1999/xlink" xml:space="preserve" style="fill-rule:evenodd;clip-rule:evenodd;stroke-linejoin:round;stroke-miterlimit:1.41421;"><path d="M7,12l-2,0c-1.104,0 -2,-0.896 -2,-2l0,-4c0,-1.103 0.895,-1.999 2,-2l8,0c1.105,0.001 2,0.897 2,2l0,4c0,1.103 -0.895,1.999 -2,2l-2,0l0,2.667c0,0 -1.997,-2.647 -4,-2.667ZM11,5c0,0 0.891,0.121 1.931,1.126c0.881,0.852 1.116,1.464 1.116,1.464c0,0 0.073,-1.231 -0.835,-1.967c-0.889,-0.72 -2.212,-0.623 -2.212,-0.623Z" style="fill:#000;"/></svg>