<?xml version="1.0" encoding="UTF-8" standalone="no"?><!DOCTYPE svg PUBLIC "-//W3C//DTD SVG 1.1//EN" "http://www.w3.org/Graphics/SVG/1.1/DTD/svg11.dtd"><svg width="100%" height="100%" viewBox="0 0 18 18" version="1.1" xmlns="http://www.w3.org/2000/svg" xmlns:xlink="http://www.w3.org/1999/xlink" xml:space="preserve" xmlns:serif="http://www.serif.com/" style="fill-rule:evenodd;clip-rule:evenodd;stroke-linejoin:round;stroke-miterlimit:1.41421;"><path d="M12.88,3l-8.38,0c-0.826,0 -1.5,0.675 -1.5,1.5l0,9c0,0.825 0.674,1.5 1.5,1.5l9,0c0.826,0 1.5,-0.675 1.5,-1.5l0,-8.155l-2.12,-2.345Zm-0.88,4.25c0,0.412 -0.337,0.75 -0.75,0.75l-4.5,0c-0.412,0 -0.75,-0.338 -0.75,-0.75l0,-3.25l6,0l0,3.25Zm-1,-2.25l-1,0l0,2l1,0l0,-2Z" style="fill-rule:nonzero;"/></svg>