<?xml version="1.0" encoding="UTF-8" standalone="no"?><!DOCTYPE svg PUBLIC "-//W3C//DTD SVG 1.1//EN" "http://www.w3.org/Graphics/SVG/1.1/DTD/svg11.dtd"><svg width="100%" height="100%" viewBox="0 0 18 18" version="1.1" xmlns="http://www.w3.org/2000/svg" xmlns:xlink="http://www.w3.org/1999/xlink" xml:space="preserve" xmlns:serif="http://www.serif.com/" style="fill-rule:evenodd;clip-rule:evenodd;stroke-linejoin:round;stroke-miterlimit:2;"><path d="M10.409,11.322c-0.157,0.29 1.079,5.061 -1.315,5.359c-1.252,0.156 -0.26,-3.323 -1.767,-4.734c-1.021,-0.956 -1.432,-2.593 -1.304,-3.505l-0.021,-2.371c0.154,-1.096 3.777,-2.433 6.998,-1.981c1.181,0.166 2.851,5.666 1.652,7.232c-0.724,0.947 -4.086,-0.291 -4.243,0Z" style="fill-rule:nonzero;"/><path d="M5,6c0,-0.552 -0.448,-1 -1,-1c-0.552,0 -1,0.448 -1,1l0,5.103c0,0.552 0.448,1 1,1c0.552,0 1,-0.448 1,-1l0,-5.103Z"/></svg>