<?xml version="1.0" encoding="UTF-8" standalone="no"?><!DOCTYPE svg PUBLIC "-//W3C//DTD SVG 1.1//EN" "http://www.w3.org/Graphics/SVG/1.1/DTD/svg11.dtd"><svg width="100%" height="100%" viewBox="0 0 18 18" version="1.1" xmlns="http://www.w3.org/2000/svg" xmlns:xlink="http://www.w3.org/1999/xlink" xml:space="preserve" xmlns:serif="http://www.serif.com/" style="fill-rule:evenodd;clip-rule:evenodd;stroke-linejoin:round;stroke-miterlimit:1.41421;"><path d="M15,13.972c0,-0.537 -0.435,-0.972 -0.972,-0.972c-2.252,0 -7.804,0 -10.056,0c-0.537,0 -0.972,0.435 -0.972,0.972c0,0.019 0,0.037 0,0.056c0,0.537 0.435,0.972 0.972,0.972c2.252,0 7.804,0 10.056,0c0.537,0 0.972,-0.435 0.972,-0.972c0,-0.019 0,-0.037 0,-0.056Z"/><path d="M8,8l0,-4.017c0,-0.261 0.104,-0.511 0.288,-0.695c0.184,-0.184 0.434,-0.288 0.695,-0.288c0.011,0 0.023,0 0.034,0c0.261,0 0.511,0.104 0.695,0.288c0.184,0.184 0.288,0.434 0.288,0.695l0,4.017l3.243,0l-4.243,4.243l-4.243,-4.243l3.243,0Z"/></svg>