<?xml version="1.0" encoding="UTF-8" standalone="no"?><!DOCTYPE svg PUBLIC "-//W3C//DTD SVG 1.1//EN" "http://www.w3.org/Graphics/SVG/1.1/DTD/svg11.dtd"><svg width="100%" height="100%" viewBox="0 0 18 18" version="1.1" xmlns="http://www.w3.org/2000/svg" xmlns:xlink="http://www.w3.org/1999/xlink" xml:space="preserve" style="fill-rule:evenodd;clip-rule:evenodd;stroke-linejoin:round;stroke-miterlimit:1.41421;"><path id="artboard-1" d="M13.27,4.703c-0.817,-0.819 -1.431,-0.696 -1.431,-0.696l-3.429,3.435l-3.838,3.844l-0.572,2.704l2.699,-0.574l3.837,-3.843l3.429,-3.436c0,0 0.123,-0.615 -0.695,-1.434ZM6.538,13.091l-0.92,0.199c-0.088,-0.166 -0.196,-0.332 -0.391,-0.528c-0.196,-0.197 -0.362,-0.303 -0.528,-0.393l0.198,-0.921l0.267,-0.266c0,0 0.5,0.01 1.065,0.576c0.565,0.566 0.576,1.068 0.576,1.068l-0.267,0.265Z" style="fill:#000;"/></svg>