<?xml version="1.0" encoding="UTF-8" standalone="no"?><!DOCTYPE svg PUBLIC "-//W3C//DTD SVG 1.1//EN" "http://www.w3.org/Graphics/SVG/1.1/DTD/svg11.dtd"><svg width="100%" height="100%" viewBox="0 0 18 18" version="1.1" xmlns="http://www.w3.org/2000/svg" xmlns:xlink="http://www.w3.org/1999/xlink" xml:space="preserve" style="fill-rule:evenodd;clip-rule:evenodd;stroke-linejoin:round;stroke-miterlimit:1.41421;"><path id="Rounded_Rectangle_3" d="M14,12l-6,0c-0.96,0 -2,-1.04 -2,-2l0,-6c0,-0.96 1.04,-2 2,-2l6,0c0.96,0 2,1.04 2,2l0,6c0,0.96 -1.04,2 -2,2ZM14,5c0,-0.48 -0.52,-1 -1,-1l-4,0c-0.48,0 -1,0.52 -1,1l0,4c0,0.48 0.52,1 1,1l4,0c0.48,0 1,-0.52 1,-1l0,-4ZM9,16l-5,0c-0.96,0 -2,-1.04 -2,-2l0,-5l2,0l0,4c0,0.48 0.52,1 1,1l4,0l0,2Z" style="fill:#000;"/></svg>