<?xml version="1.0" encoding="UTF-8" standalone="no"?><!DOCTYPE svg PUBLIC "-//W3C//DTD SVG 1.1//EN" "http://www.w3.org/Graphics/SVG/1.1/DTD/svg11.dtd"><svg width="100%" height="100%" viewBox="0 0 18 18" version="1.1" xmlns="http://www.w3.org/2000/svg" xmlns:xlink="http://www.w3.org/1999/xlink" xml:space="preserve" style="fill-rule:evenodd;clip-rule:evenodd;stroke-linejoin:round;stroke-miterlimit:1.41421;"><path d="M16.143,12c0.002,0 0.857,0.021 0.857,1c0,0.98 -0.857,1 -0.857,1l-10.286,0c0,0 -0.857,-0.014 -0.857,-1c0,-0.985 0.855,-1 0.857,-1l10.286,0Z"/><path d="M14.143,8c0.002,0 0.857,0.021 0.857,1c0,0.979 -0.855,1 -0.857,1l-10.286,0c0,0 -0.857,-0.014 -0.857,-1c0,-0.985 0.855,-1 0.857,-1l10.286,0Z"/><path d="M12.143,4c0.002,0 0.857,0.021 0.857,1c0,0.979 -0.855,1 -0.857,1l-10.286,0c0,0 -0.857,-0.014 -0.857,-1c0,-0.985 0.855,-1 0.857,-1l10.286,0Z"/></svg>