<?xml version="1.0" encoding="UTF-8" standalone="no"?><!DOCTYPE svg PUBLIC "-//W3C//DTD SVG 1.1//EN" "http://www.w3.org/Graphics/SVG/1.1/DTD/svg11.dtd"><svg width="100%" height="100%" viewBox="0 0 18 18" version="1.1" xmlns="http://www.w3.org/2000/svg" xmlns:xlink="http://www.w3.org/1999/xlink" xml:space="preserve" xmlns:serif="http://www.serif.com/" style="fill-rule:evenodd;clip-rule:evenodd;stroke-linejoin:round;stroke-miterlimit:2;"><path d="M10.347,7.155c-0.158,-0.29 1.078,-5.06 -1.315,-5.359c-1.253,-0.156 -0.261,3.323 -1.767,4.734c-1.021,0.956 -1.433,2.593 -1.305,3.505l-0.021,3.371c0.154,1.097 3.612,1.173 6.833,0.721c1.18,-0.166 3.016,-5.406 1.818,-6.972c-0.724,-0.947 -4.087,0.291 -4.243,0Z" style="fill-rule:nonzero;"/><path d="M5,9c0,-0.552 -0.448,-1 -1,-1c-0.552,0 -1,0.448 -1,1l0,5.103c0,0.552 0.448,1 1,1c0.552,0 1,-0.448 1,-1l0,-5.103Z"/></svg>