<?xml version="1.0" encoding="UTF-8" standalone="no"?><!DOCTYPE svg PUBLIC "-//W3C//DTD SVG 1.1//EN" "http://www.w3.org/Graphics/SVG/1.1/DTD/svg11.dtd"><svg width="100%" height="100%" viewBox="0 0 18 18" version="1.1" xmlns="http://www.w3.org/2000/svg" xmlns:xlink="http://www.w3.org/1999/xlink" xml:space="preserve" xmlns:serif="http://www.serif.com/" style="fill-rule:evenodd;clip-rule:evenodd;stroke-linejoin:round;stroke-miterlimit:1.41421;"><path d="M15,12c0.002,0 1,0.021 1,1c0,0.98 -1,1 -1,1l-12,0c0,0 -1,-0.014 -1,-1c0,-0.985 0.998,-1 1,-1l12,0Zm0,-4c0.002,0 1,0.021 1,1c0,0.979 -0.998,1 -1,1l-12,0c0,0 -1,-0.014 -1,-1c0,-0.985 0.998,-1 1,-1l12,0Zm0,-4c0.002,0 1,0.021 1,1c0,0.979 -0.998,1 -1,1l-12,0c0,0 -1,-0.014 -1,-1c0,-0.985 0.998,-1 1,-1l12,0Z"/></svg>