<?xml version="1.0" encoding="UTF-8" standalone="no"?><!DOCTYPE svg PUBLIC "-//W3C//DTD SVG 1.1//EN" "http://www.w3.org/Graphics/SVG/1.1/DTD/svg11.dtd"><svg width="100%" height="100%" viewBox="0 0 18 18" version="1.1" xmlns="http://www.w3.org/2000/svg" xmlns:xlink="http://www.w3.org/1999/xlink" xml:space="preserve" style="fill-rule:evenodd;clip-rule:evenodd;stroke-linejoin:round;stroke-miterlimit:1.41421;"><path id="artboard-1" d="M9.963,9.962l0.037,4.045c0,0 0.024,1 -1,1c-1.024,0 -1,-1 -1,-1l0.052,-4.045l-4.052,0.045c0,0 -1,-0.015 -1,-1c0,-0.985 1,-1 1,-1l4.052,0.045l-0.052,-4.045c0,0 0.027,-1 1,-1c0.973,0 1,1 1,1l-0.037,4.045l4.037,-0.045c0,0 1,0.001 1,1c0,0.999 -1,1 -1,1l-4.037,-0.045Z" style="fill:#000;"/></svg>