<svg width="18" height="18" viewBox="0 0 18 18" fill="none" xmlns="http://www.w3.org/2000/svg">
<path d="M4 6.5C4 5.67157 4.67157 5 5.5 5H13.5C14.3284 5 15 5.67157 15 6.5C15 7.32843 14.3284 8 13.5 8H5.5C4.67157 8 4 7.32843 4 6.5Z" fill="black"/>
<path d="M4 10C4 9.44772 4.44772 9 5 9H11C11.5523 9 12 9.44772 12 10C12 10.5523 11.5523 11 11 11H5C4.44772 11 4 10.5523 4 10Z" fill="black"/>
<path d="M4 13C4 12.4477 4.44772 12 5 12H11C11.5523 12 12 12.4477 12 13C12 13.5523 11.5523 14 11 14H5C4.44772 14 4 13.5523 4 13Z" fill="black"/>
</svg>
