<?xml version="1.0" encoding="UTF-8" standalone="no"?><!DOCTYPE svg PUBLIC "-//W3C//DTD SVG 1.1//EN" "http://www.w3.org/Graphics/SVG/1.1/DTD/svg11.dtd"><svg width="100%" height="100%" viewBox="0 0 18 18" version="1.1" xmlns="http://www.w3.org/2000/svg" xmlns:xlink="http://www.w3.org/1999/xlink" xml:space="preserve" xmlns:serif="http://www.serif.com/" style="fill-rule:evenodd;clip-rule:evenodd;stroke-linejoin:round;stroke-miterlimit:2;"><path d="M14,2c1.656,0 3,1.344 3,3l0,8c0,1.656 -1.344,3 -3,3l-10,0c-1.656,0 -3,-1.344 -3,-3l0,-8c0,-1.656 1.344,-3 3,-3l10,0Zm-0.376,2l-9.248,0c-0.76,0 -1.376,0.617 -1.376,1.376l0,7.248c0,0.76 0.616,1.376 1.376,1.376l9.248,0c0.76,0 1.376,-0.616 1.376,-1.376l0,-7.248c0,-0.759 -0.616,-1.376 -1.376,-1.376Z"/><path d="M7,8l0,-2l4,3l-4,3l0,-2l-2,0c-0.552,0 -1,-0.448 -1,-1c0,-0.552 0.448,-1 1,-1l2,0Z"/><path d="M14,5.997c0,-0.55 -0.447,-0.997 -0.997,-0.997l-1.003,0l0,8l1,0c0.552,0 1,-0.448 1,-1l0,-6.003Z"/></svg>