<?xml version="1.0" encoding="UTF-8" standalone="no"?><!DOCTYPE svg PUBLIC "-//W3C//DTD SVG 1.1//EN" "http://www.w3.org/Graphics/SVG/1.1/DTD/svg11.dtd"><svg width="100%" height="100%" viewBox="0 0 18 18" version="1.1" xmlns="http://www.w3.org/2000/svg" xmlns:xlink="http://www.w3.org/1999/xlink" xml:space="preserve" style="fill-rule:evenodd;clip-rule:evenodd;stroke-linejoin:round;stroke-miterlimit:1.41421;"><path d="M5.76,4.136c0.838,-0.46 1.799,-0.72 2.824,-0.72c3.314,0 6,2.686 6,6c0,3.314 -2.686,6 -6,6c-2.215,0 -4.128,-1.214 -5.168,-3l2.548,0c0.703,0.615 1.612,1 2.62,1c2.209,0 4,-1.791 4,-4c0,-2.209 -1.791,-4 -4,-4c-0.661,0 -1.279,0.166 -1.822,0.455M4.527,2l4,6.928l-6.33,-0.964l2.33,-5.964Z" style="fill:#000;"/></svg>