<?xml version="1.0" encoding="UTF-8" standalone="no"?><!DOCTYPE svg PUBLIC "-//W3C//DTD SVG 1.1//EN" "http://www.w3.org/Graphics/SVG/1.1/DTD/svg11.dtd"><svg width="100%" height="100%" viewBox="0 0 18 18" version="1.1" xmlns="http://www.w3.org/2000/svg" xmlns:xlink="http://www.w3.org/1999/xlink" xml:space="preserve" style="fill-rule:evenodd;clip-rule:evenodd;stroke-linejoin:round;stroke-miterlimit:1.41421;"><path d="M8,12l-3,0c-1.399,0 -3.005,-1.14 -3.005,-2.485c0,-1.345 1.134,-2.434 2.533,-2.434c0.101,0 0.201,0.007 0.3,0.019c-0.026,-0.171 -0.04,-0.345 -0.04,-0.521c0,-1.976 1.666,-3.579 3.724,-3.579c1.685,0 3.107,1.076 3.566,2.553c0.185,-0.031 0.374,-0.048 0.566,-0.048c1.851,0 3.351,1.443 3.351,3.223c0,1.779 -2.144,3.272 -3.995,3.272l-2,0l0,-3l2,0l-3,-3l-3,3l2,0l0,3Z" style="fill:#000;"/></svg>