<?xml version="1.0" encoding="UTF-8" standalone="no"?><!DOCTYPE svg PUBLIC "-//W3C//DTD SVG 1.1//EN" "http://www.w3.org/Graphics/SVG/1.1/DTD/svg11.dtd"><svg width="100%" height="100%" viewBox="0 0 18 18" version="1.1" xmlns="http://www.w3.org/2000/svg" xmlns:xlink="http://www.w3.org/1999/xlink" xml:space="preserve" style="fill-rule:evenodd;clip-rule:evenodd;stroke-linejoin:round;stroke-miterlimit:1.41421;"><path id="artboard-1" d="M7.18,2.481c-0.813,0.57 -1.031,1.472 -0.991,1.952c0.051,0.587 0.177,1.352 0.177,1.352c0,0 -0.25,0.128 -0.25,0.643c0.087,1.294 0.546,0.736 0.641,1.303c0.227,1.368 0.746,1.124 0.746,1.87c0,1.243 -0.544,1.824 -2.242,2.513c-1.704,0.692 -2.261,1.563 -2.261,3.07l0,0.754l12,0l0,-0.754c0,-1.507 -0.558,-2.378 -2.262,-3.069c-1.699,-0.689 -2.241,-1.269 -2.241,-2.513c0,-0.746 0.517,-0.503 0.745,-1.87c0.096,-0.567 0.554,-0.009 0.643,-1.303c0,-0.516 -0.251,-0.644 -0.251,-0.644c0,0 0.126,-0.764 0.176,-1.351c-0.627,-3.372 -3.611,-2.627 -4.63,-1.953Z" style="fill:#000;"/></svg>