<?xml version="1.0" encoding="UTF-8" standalone="no"?><!DOCTYPE svg PUBLIC "-//W3C//DTD SVG 1.1//EN" "http://www.w3.org/Graphics/SVG/1.1/DTD/svg11.dtd"><svg width="100%" height="100%" viewBox="0 0 18 19" version="1.1" xmlns="http://www.w3.org/2000/svg" xmlns:xlink="http://www.w3.org/1999/xlink" xml:space="preserve" style="fill-rule:evenodd;clip-rule:evenodd;stroke-linejoin:round;stroke-miterlimit:1.41421;"><path id="artboard-1" d="M10.352,9.034l2.886,2.834c0,0 0.724,0.69 0,1.414c-0.724,0.724 -1.414,0 -1.414,0l-2.823,-2.897l-2.834,2.897c0,0 -0.717,0.697 -1.414,0c-0.697,-0.696 0,-1.414 0,-1.414l2.897,-2.834l-2.897,-2.823c0,0 -0.688,-0.726 0,-1.414c0.688,-0.688 1.414,0 1.414,0l2.834,2.886l2.823,-2.886c0,0 0.708,-0.706 1.414,0c0.707,0.707 0,1.414 0,1.414l-2.886,2.823Z" style="fill:#000;"/></svg>