<?xml version="1.0" encoding="UTF-8" standalone="no"?><!DOCTYPE svg PUBLIC "-//W3C//DTD SVG 1.1//EN" "http://www.w3.org/Graphics/SVG/1.1/DTD/svg11.dtd"><svg width="100%" height="100%" viewBox="0 0 18 19" version="1.1" xmlns="http://www.w3.org/2000/svg" xmlns:xlink="http://www.w3.org/1999/xlink" xml:space="preserve" xmlns:serif="http://www.serif.com/" style="fill-rule:evenodd;clip-rule:evenodd;stroke-linejoin:round;stroke-miterlimit:2;"><path d="M9,7.622l3.536,-3.535c0.39,-0.39 1.023,-0.39 1.414,0c0.39,0.39 0.39,1.024 0,1.414l-3.536,3.536l3.536,3.535c0.39,0.39 0.39,1.024 0,1.414c-0.391,0.391 -1.024,0.391 -1.414,0l-3.536,-3.535l-3.536,3.535c-0.39,0.391 -1.023,0.391 -1.414,0c-0.39,-0.39 -0.39,-1.024 0,-1.414l3.536,-3.535l-3.536,-3.536c-0.39,-0.39 -0.39,-1.024 0,-1.414c0.391,-0.39 1.024,-0.39 1.414,0l3.536,3.535Z"/></svg>